SplineFontDB: 3.2
FontName: QuasarOpen-Thin
FullName: Quasar Open Thin
FamilyName: Quasar Open
Weight: Thin
Copyright: Copyright (c) 2023, neilb
UComments: "2023-12-15: Created with FontForge (http://fontforge.org)"
Version: 000.001
ItalicAngle: 0
UnderlinePosition: -100
UnderlineWidth: 50
Ascent: 800
Descent: 200
InvalidEm: 0
LayerCount: 2
Layer: 0 0 "Back" 1
Layer: 1 0 "Fore" 0
XUID: [1021 441 2049316168 16478]
StyleMap: 0x0000
FSType: 0
OS2Version: 0
OS2_WeightWidthSlopeOnly: 0
OS2_UseTypoMetrics: 1
CreationTime: 1702635369
ModificationTime: 1704894471
OS2TypoAscent: 0
OS2TypoAOffset: 1
OS2TypoDescent: 0
OS2TypoDOffset: 1
OS2TypoLinegap: 90
OS2WinAscent: 0
OS2WinAOffset: 1
OS2WinDescent: 0
OS2WinDOffset: 1
HheadAscent: 0
HheadAOffset: 1
HheadDescent: 0
HheadDOffset: 1
OS2Vendor: 'PfEd'
MarkAttachClasses: 1
DEI: 91125
Encoding: UnicodeFull
UnicodeInterp: none
NameList: AGL For New Fonts
DisplaySize: -48
AntiAlias: 1
FitToEm: 1
WinInfo: 16 16 8
BeginPrivate: 0
EndPrivate
Grid
-1000 500.25 m 0
 2000 500.25 l 1024
EndSplineSet
BeginChars: 1114113 36

StartChar: i
Encoding: 105 105 0
Width: 165
Flags: HMW
LayerCount: 2
Fore
SplineSet
58 679 m 0
 58 693 69 704 83 704 c 0
 97 704 108 693 108 679 c 0
 108 665 97 654 83 654 c 0
 69 654 58 665 58 679 c 0
70 500 m 1
 95 500 l 1
 95 0 l 1
 70 0 l 1
 70 500 l 1
EndSplineSet
EndChar

StartChar: o
Encoding: 111 111 1
Width: 600
Flags: HMW
LayerCount: 2
Fore
SplineSet
70 250 m 4
 70 121 166 15 300 15 c 4
 434 15 530 121 530 250 c 4
 530 379 434 485 300 485 c 4
 166 485 70 379 70 250 c 4
45 250 m 4
 45 395 151 510 300 510 c 4
 449 510 555 395 555 250 c 4
 555 105 449 -10 300 -10 c 4
 151 -10 45 105 45 250 c 4
EndSplineSet
EndChar

StartChar: n
Encoding: 110 110 2
Width: 610
Flags: HMW
LayerCount: 2
Back
SplineSet
120 275 m 4
 120 405 225 510 355 510 c 4
 485 510 590 405 590 275 c 4
 590 145 485 40 355 40 c 4
 225 40 120 145 120 275 c 4
145 275 m 0
 145 391 239 485 355 485 c 0
 471 485 565 391 565 275 c 0
 565 159 471 65 355 65 c 0
 239 65 145 159 145 275 c 0
EndSplineSet
Fore
SplineSet
70 268 m 2
 70 415 181 510 305 510 c 0
 429 510 540 414 540 268 c 2
 540 0 l 9
 515 0 l 17
 515 267 l 2
 515 404 411 485 305 485 c 0
 199 485 95 404 95 267 c 2
 95 0 l 9
 70 0 l 17
 70 268 l 2
EndSplineSet
EndChar

StartChar: m
Encoding: 109 109 3
Width: 935
Flags: HMW
LayerCount: 2
Back
SplineSet
505 268 m 2
 505 415 616 510 740 510 c 0
 864 510 975 414 975 268 c 2
 975 0 l 9
 950 0 l 17
 950 267 l 2
 950 404 846 485 740 485 c 0
 634 485 530 404 530 267 c 2
 530 0 l 9
 505 0 l 17
 505 268 l 2
60 268 m 2
 60 415 171 510 295 510 c 0
 419 510 530 414 530 268 c 2
 530 0 l 9
 505 0 l 17
 505 267 l 2
 505 404 401 485 295 485 c 0
 189 485 85 404 85 267 c 2
 85 0 l 9
 60 0 l 17
 60 268 l 2
EndSplineSet
Fore
SplineSet
460 268 m 2
 460 415 538 510 662 510 c 0
 784 510 865 412 865 268 c 2
 865 0 l 9
 840 0 l 17
 840 267 l 2
 840 404 766 485 660 485 c 0
 554 485 480 404 480 267 c 2
 480 0 l 9
 460 0 l 17
 460 268 l 2
70 268 m 2
 70 414 151 510 273 510 c 0
 397 510 475 414 475 268 c 2
 475 0 l 9
 455 0 l 17
 455 267 l 2
 455 404 381 485 275 485 c 0
 169 485 95 404 95 267 c 2
 95 0 l 9
 70 0 l 17
 70 268 l 2
EndSplineSet
EndChar

StartChar: l
Encoding: 108 108 4
Width: 165
Flags: HMW
LayerCount: 2
Fore
SplineSet
70 828 m 1
 95 828 l 1
 95 0 l 1
 70 0 l 1
 70 828 l 1
EndSplineSet
EndChar

StartChar: h
Encoding: 104 104 5
Width: 610
Flags: HMW
LayerCount: 2
Back
SplineSet
120 828 m 1
 145 828 l 1
 145 0 l 1
 120 0 l 1
 120 828 l 1
120 268 m 2
 120 415 231 510 355 510 c 0
 479 510 590 414 590 268 c 2
 590 0 l 9
 565 0 l 17
 565 267 l 2
 565 404 461 485 355 485 c 0
 249 485 145 404 145 267 c 2
 145 230 l 9
 120 230 l 17
 120 268 l 2
EndSplineSet
Fore
SplineSet
70 828 m 1
 95 828 l 1
 95 0 l 1
 70 0 l 1
 70 828 l 1
78 268 m 2
 78 415 175 510 311 510 c 0
 427 510 540 415 540 268 c 2
 540 0 l 9
 515 0 l 17
 515 267 l 2
 515 400 417 485 305 485 c 0
 199 485 95 404 95 267 c 2
 95 230 l 9
 78 230 l 17
 78 268 l 2
EndSplineSet
EndChar

StartChar: g
Encoding: 103 103 6
Width: 547
Flags: HMW
LayerCount: 2
Back
SplineSet
290 475 m 6
 183 475 99 389 99 284 c 7
 99 179 185 93 290 93 c 4
 395 93 481 179 481 284 c 4
 481 333 462 377 432 411 c 5
 465 411 l 5
 491 375 506 331 506 284 c 4
 506 165 409 68 290 68 c 4
 171 68 74 165 74 284 c 4
 74 403 171 500 290 500 c 6
 506 500 l 5
 506 475 l 5
 290 475 l 6
99 -122 m 4
 99 -227 185 -313 290 -313 c 4
 395 -313 481 -227 481 -122 c 4
 481 -17 395 69 290 69 c 4
 185 69 99 -17 99 -122 c 4
74 -122 m 4
 74 -3 171 94 290 94 c 4
 409 94 506 -3 506 -122 c 4
 506 -241 409 -338 290 -338 c 4
 171 -338 74 -241 74 -122 c 4
-1115 -135 m 0
 -1115 -243 -1028 -330 -920 -330 c 0
 -812 -330 -725 -243 -725 -135 c 0
 -725 -27 -812 60 -920 60 c 0
 -1028 60 -1115 -27 -1115 -135 c 0
-1140 -135 m 0
 -1140 -14 -1041 85 -920 85 c 0
 -799 85 -700 -14 -700 -135 c 0
 -700 -256 -799 -355 -920 -355 c 0
 -1041 -355 -1140 -256 -1140 -135 c 0
-729.671875 390 m 1
 -710.817382812 357.591796875 -700 319.998046875 -700 280 c 0
 -700 159 -799 60 -920 60 c 0
 -1041 60 -1140 159 -1140 280 c 0
 -1140 401 -1041 500 -920 500 c 2
 -700 500 l 1
 -700 475 l 1
 -920 475 l 2
 -1028 475 -1115 388 -1115 280 c 0
 -1115 172 -1028 85 -920 85 c 0
 -812 85 -725 172 -725 280 c 0
 -725 320.865234375 -737.456054688 358.723632812 -758.791992188 390 c 1
 -729.671875 390 l 1
676 -170 m 0
 676 -65 752 15 861 15 c 0
 970 15 1046 -65 1046 -170 c 0
 1046 -275 970 -355 861 -355 c 0
 752 -355 676 -275 676 -170 c 0
701 -170 m 0
 701 -259 767 -330 861 -330 c 0
 955 -330 1021 -259 1021 -170 c 0
 1021 -81 955 -10 861 -10 c 0
 767 -10 701 -81 701 -170 c 0
1071.984375 400 m 1
 1100.109375 357.786132812 1116 306.141601562 1116 250 c 0
 1116 105 1010 -10 861 -10 c 0
 712 -10 606 105 606 250 c 0
 606 395 712 500 861 500 c 2
 1116 500 l 1
 1116 475 l 1
 861 475 l 2
 727 475 631 379 631 250 c 0
 631 121 727 15 861 15 c 0
 995 15 1091 121 1091 250 c 0
 1091 306.829101562 1072.36914062 359.194335938 1040.06640625 400 c 1
 1071.984375 400 l 1
-624 -245 m 0
 -624 -100 -518 15 -369 15 c 0
 -220 15 -114 -100 -114 -245 c 0
 -114 -390 -220 -505 -369 -505 c 0
 -518 -505 -624 -390 -624 -245 c 0
-599 -245 m 0
 -599 -374 -503 -480 -369 -480 c 0
 -235 -480 -139 -374 -139 -245 c 0
 -139 -116 -235 -10 -369 -10 c 0
 -503 -10 -599 -116 -599 -245 c 0
-599 250 m 0
 -599 121 -503 15 -369 15 c 0
 -235 15 -139 121 -139 250 c 0
 -139 379 -235 485 -369 485 c 0
 -503 485 -599 379 -599 250 c 0
-255.715820312 485 m 1
 -169.111328125 443.5078125 -114 354.552734375 -114 250 c 0
 -114 105 -220 -10 -369 -10 c 0
 -518 -10 -624 105 -624 250 c 0
 -624 395 -518 510 -369 510 c 2
 -114 510 l 1
 -114 485 l 1
 -255.715820312 485 l 1
EndSplineSet
Fore
SplineSet
70 -122 m 0
 70 -227 156 -313 261 -313 c 0
 366 -313 452 -227 452 -122 c 0
 452 -17 366 69 261 69 c 0
 156 69 70 -17 70 -122 c 0
45 -122 m 0
 45 -1 142 89 261 89 c 0
 380 89 477 -1 477 -122 c 0
 477 -241 380 -338 261 -338 c 0
 142 -338 45 -241 45 -122 c 0
261 475 m 2
 154 475 70 389 70 284 c 3
 70 179 156 93 261 93 c 0
 366 93 452 179 452 284 c 0
 452 333 433 377 403 411 c 1
 436 411 l 1
 462 375 477 331 477 284 c 0
 477 163 380 73 261 73 c 0
 142 73 45 163 45 284 c 0
 45 403 142 500 261 500 c 2
 477 500 l 1
 477 475 l 1
 261 475 l 2
EndSplineSet
EndChar

StartChar: a
Encoding: 97 97 7
Width: 615
Flags: HMW
LayerCount: 2
Back
SplineSet
95 250 m 0
 95 121 191 15 325 15 c 0
 459 15 555 121 555 250 c 0
 555 379 459 485 325 485 c 0
 191 485 95 379 95 250 c 0
70 250 m 0
 70 395 176 510 325 510 c 0
 474 510 580 395 580 250 c 0
 580 105 474 -10 325 -10 c 0
 176 -10 70 105 70 250 c 0
EndSplineSet
Fore
SplineSet
300 485 m 0
 166 485 70 379 70 250 c 0
 70 121 166 15 300 15 c 0
 362.077148438 15 416 37.7490234375 456 74.9951171875 c 1
 456 41.1787109375 l 1
 413.8984375 8.955078125 360.493164062 -10 300 -10 c 0
 151 -10 45 105 45 250 c 0
 45 395 151 510 300 510 c 0
 424 510 545 419 545 238 c 2
 545 0 l 1
 520 0 l 1
 520 237 l 2
 520 404 409 485 300 485 c 0
EndSplineSet
EndChar

StartChar: r
Encoding: 114 114 8
Width: 437
Flags: HMW
LayerCount: 2
Back
SplineSet
135 250 m 0
 135 121 231 15 365 15 c 0
 499 15 595 121 595 250 c 0
 595 379 499 485 365 485 c 0
 231 485 135 379 135 250 c 0
110 250 m 0
 110 395 216 510 365 510 c 0
 514 510 620 395 620 250 c 0
 620 105 514 -10 365 -10 c 0
 216 -10 110 105 110 250 c 0
EndSplineSet
Fore
SplineSet
326 510 m 3
 342 510 367 508 387 503 c 1
 387 477 l 17
 359 484 340 485 326 485 c 3
 193 485 95 382 95 249 c 2
 95 0 l 9
 70 0 l 17
 70 250 l 2
 70 396 177 510 326 510 c 3
EndSplineSet
EndChar

StartChar: x
Encoding: 120 120 9
Width: 597
Flags: HMW
LayerCount: 2
Back
SplineSet
78 500 m 1
 197 500 300 431 320 313 c 1
 340 431 444 500 563 500 c 1
 563 475 l 1
 429 475 333 379 333 250 c 0
 333 121 429 25 563 25 c 1
 563 0 l 1
 444 0 340 69 320 187 c 1
 300 69 197 0 78 0 c 1
 78 25 l 1
 212 25 308 121 308 250 c 0
 308 379 212 475 78 475 c 1
 78 500 l 1
563 475 m 1
 429 475 333 379 333 250 c 0
 333 121 429 25 563 25 c 1
 563 0 l 1
 414 0 308 105 308 250 c 0
 308 395 414 500 563 500 c 1
 563 475 l 1
78 25 m 1
 212 25 308 121 308 250 c 0
 308 379 212 475 78 475 c 1
 78 500 l 1
 227 500 333 395 333 250 c 0
 333 105 227 0 78 0 c 1
 78 25 l 1
EndSplineSet
Fore
SplineSet
86 485 m 3
 70 485 63 485 50 482 c 9
 50 507 l 1
 61 510 71 510 86 510 c 3
 189 510 306 395 306 250 c 0
 306 105 189 -10 86 -10 c 3
 71 -10 61 -9 50 -6 c 1
 50 19 l 17
 63 16 70 15 86 15 c 3
 174 15 286 121 286 250 c 0
 286 379 174 485 86 485 c 3
511 15 m 3
 527 15 534 15 547 18 c 9
 547 -7 l 1
 536 -10 526 -10 511 -10 c 3
 398 -10 291 105 291 250 c 0
 291 395 398 510 511 510 c 3
 526 510 536 510 547 507 c 1
 547 482 l 17
 534 485 527 485 511 485 c 3
 413 485 311 379 311 250 c 0
 311 121 413 15 511 15 c 3
EndSplineSet
EndChar

StartChar: q
Encoding: 113 113 10
Width: 615
Flags: HMW
LayerCount: 2
Fore
SplineSet
300 485 m 0
 166 485 70 379 70 250 c 0
 70 121 166 15 300 15 c 0
 362.077148438 15 416 37.7490234375 456 74.9951171875 c 1
 456 41.1787109375 l 1
 413.8984375 8.955078125 360.493164062 -10 300 -10 c 0
 151 -10 45 105 45 250 c 0
 45 395 151 510 300 510 c 0
 424 510 545 419 545 238 c 2
 545 -328 l 1
 520 -328 l 1
 520 237 l 2
 520 404 409 485 300 485 c 0
EndSplineSet
EndChar

StartChar: e
Encoding: 101 101 15
Width: 625
Flags: HMW
LayerCount: 2
Back
SplineSet
95 250 m 0
 95 121 191 15 325 15 c 0
 459 15 555 121 555 250 c 0
 555 379 459 485 325 485 c 0
 191 485 95 379 95 250 c 0
70 250 m 0
 70 395 176 510 325 510 c 0
 474 510 580 395 580 250 c 0
 580 105 474 -10 325 -10 c 0
 176 -10 70 105 70 250 c 0
EndSplineSet
Fore
SplineSet
300 25 m 2
 555 25 l 1
 555 0 l 1
 300 0 l 2
 151 0 45 105 45 250 c 3
 45 395 151 510 300 510 c 3
 449 510 555 395 555 250 c 3
 555 188.881835938 536.166992188 133.092773438 503.219726562 89 c 1
 469.774414062 89 l 1
 507.770507812 131.174804688 530 187.924804688 530 250 c 3
 530 379 434 485 300 485 c 3
 166 485 70 379 70 250 c 3
 70 121 166 25 300 25 c 2
EndSplineSet
EndChar

StartChar: y
Encoding: 121 121 16
Width: 610
Flags: HMW
LayerCount: 2
Back
SplineSet
105 -78 m 0
 105 -207 201 -313 335 -313 c 0
 469 -313 565 -207 565 -78 c 0
 565 51 469 157 335 157 c 0
 201 157 105 51 105 -78 c 0
80 -78 m 0
 80 67 186 182 335 182 c 0
 484 182 590 67 590 -78 c 0
 590 -223 484 -338 335 -338 c 0
 186 -338 80 -223 80 -78 c 0
EndSplineSet
Fore
SplineSet
532 232 m 2
 532 85 435 -10 299 -10 c 0
 183 -10 70 85 70 232 c 2
 70 500 l 9
 95 500 l 17
 95 233 l 2
 95 100 193 15 305 15 c 0
 411 15 515 96 515 233 c 2
 515 270 l 9
 532 270 l 17
 532 232 l 2
143 -266 m 1
 178 -293 227 -313 285 -313 c 3
 419 -313 515 -207 515 -78 c 2
 515 500 l 1
 540 500 l 1
 540 -78 l 2
 540 -223 434 -338 285 -338 c 3
 228 -338 184 -323 143 -297 c 1
 143 -266 l 1
EndSplineSet
EndChar

StartChar: w
Encoding: 119 119 17
Width: 935
Flags: HMW
LayerCount: 2
Back
SplineSet
515 242 m 2
 515 95 419 0 295 0 c 2
 110 0 l 9
 110 500 l 9
 135 500 l 17
 135 25 l 17
 295 25 l 2
 401 25 495 106 495 243 c 2
 495 500 l 9
 515 500 l 17
 515 242 l 2
EndSplineSet
Fore
SplineSet
475 242 m 2
 475 95 379 0 255 0 c 2
 70 0 l 9
 70 500 l 9
 95 500 l 17
 95 25 l 17
 255 25 l 2
 361 25 455 106 455 243 c 2
 455 500 l 9
 475 500 l 17
 475 242 l 2
865 232 m 2
 865 86 784 -10 662 -10 c 0
 538 -10 460 86 460 232 c 2
 460 500 l 9
 480 500 l 17
 480 233 l 2
 480 96 554 15 660 15 c 0
 766 15 840 96 840 233 c 2
 840 500 l 9
 865 500 l 17
 865 232 l 2
EndSplineSet
EndChar

StartChar: uni0261
Encoding: 609 609 18
Width: 620
Flags: MW
LayerCount: 2
Fore
SplineSet
515 -78 m 2
 515 237 l 2
 515 404 404 485 295 485 c 0
 161 485 65 379 65 250 c 0
 65 121 161 15 295 15 c 0
 357.077561523 15 410.999792884 37.7492967995 451 74.9951578719 c 1
 451 41.1785031205 l 1
 408.898144661 8.95534920896 355.492753135 -10 295 -10 c 0
 146 -10 40 105 40 250 c 0
 40 395 146 510 295 510 c 0
 419 510 540 419 540 238 c 2
 540 -78 l 2
 540 -223 434 -338 285 -338 c 3
 228 -338 184 -323 143 -297 c 1
 143 -265 l 1
 178 -293 227 -313 285 -313 c 3
 419 -313 515 -207 515 -78 c 2
EndSplineSet
EndChar

StartChar: f
Encoding: 102 102 19
Width: 417
Flags: HMW
LayerCount: 2
Fore
SplineSet
326 838 m 0
 342 838 367 836 387 831 c 1
 387 805 l 1
 359 812 340 813 326 813 c 0
 193 813 95 710 95 577 c 2
 95 500 l 1
 362 500 l 1
 362 475 l 1
 95 475 l 1
 95 0 l 1
 70 0 l 1
 70 578 l 2
 70 724 177 838 326 838 c 0
EndSplineSet
EndChar

StartChar: t
Encoding: 116 116 20
Width: 457
Flags: HMW
LayerCount: 2
Fore
SplineSet
326 -10 m 0
 177 -10 70 104 70 250 c 2
 70 679 l 1
 95 679 l 1
 95 500 l 1
 362 500 l 1
 362 475 l 1
 95 475 l 1
 95 251 l 2
 95 118 193 15 326 15 c 0
 340 15 359 16 387 23 c 1
 387 -3 l 1
 367 -8 342 -10 326 -10 c 0
EndSplineSet
EndChar

StartChar: j
Encoding: 106 106 21
Width: 406
Flags: HMW
LayerCount: 2
Back
SplineSet
319 669 m 4
 319 683 330 694 344 694 c 4
 358 694 369 683 369 669 c 4
 369 655 358 644 344 644 c 4
 330 644 319 655 319 669 c 4
332 -328 m 29
 332 500 l 5
 357 500 l 5
 357 -328 l 29
 332 -328 l 29
EndSplineSet
Fore
SplineSet
299 679 m 0
 299 693 310 704 324 704 c 0
 338 704 349 693 349 679 c 0
 349 665 338 654 324 654 c 0
 310 654 299 665 299 679 c 0
312 500 m 1
 337 500 l 1
 337 -78 l 2
 337 -224 230 -338 81 -338 c 0
 65 -338 40 -336 20 -331 c 1
 20 -305 l 1
 48 -312 67 -313 81 -313 c 0
 214 -313 312 -210 312 -77 c 2
 312 500 l 1
EndSplineSet
EndChar

StartChar: c
Encoding: 99 99 22
Width: 432
Flags: HMW
LayerCount: 2
Back
SplineSet
326 510 m 7
 342 510 367 508 387 503 c 5
 387 477 l 21
 359 484 340 485 326 485 c 7
 193 485 95 382 95 249 c 2
 95 0 l 9
 70 0 l 17
 70 250 l 2
 70 396 177 510 326 510 c 7
EndSplineSet
Fore
SplineSet
300 15 m 3
 314 15 333 16 361 23 c 9
 361 -3 l 1
 341 -8 316 -10 300 -10 c 3
 151 -10 45 105 45 250 c 0
 45 395 152 510 301 510 c 3
 317 510 342 508 362 503 c 1
 362 477 l 17
 334 484 315 485 301 485 c 3
 167 485 70 379 70 250 c 0
 70 121 166 15 300 15 c 3
EndSplineSet
EndChar

StartChar: s
Encoding: 115 115 23
Width: 529
Flags: HMW
LayerCount: 2
Back
SplineSet
261 288 m 0
 261 397 349 485 458 485 c 0
 567 485 655 397 655 288 c 0
 655 179 567 91 458 91 c 0
 349 91 261 179 261 288 c 0
289 316 m 0
 289 409 365 485 458 485 c 0
 551 485 627 409 627 316 c 0
 627 223 551 147 458 147 c 0
 365 147 289 223 289 316 c 0
312 339 m 0
 312 420 377 485 458 485 c 0
 539 485 604 420 604 339 c 0
 604 258 539 193 458 193 c 0
 377 193 312 258 312 339 c 0
EndSplineSet
Fore
SplineSet
252 250 m 19
 252 396 309 510 438 510 c 3
 454 510 479 508 499 503 c 1
 499 477 l 17
 471 484 452 485 438 485 c 3
 325 485 277 382 277 249 c 3
 277 103 230 -11 91 -11 c 3
 75 -11 50 -9 30 -4 c 1
 30 22 l 17
 58 15 77 14 91 14 c 3
 214 14 252 121 252 250 c 19
EndSplineSet
EndChar

StartChar: v
Encoding: 118 118 24
Width: 570
Flags: HMW
LayerCount: 2
Fore
SplineSet
500 242 m 2
 500 95 389 0 265 0 c 2
 70 0 l 9
 70 500 l 9
 95 500 l 17
 95 25 l 17
 265 25 l 2
 371 25 475 106 475 243 c 2
 475 500 l 9
 500 500 l 17
 500 242 l 2
EndSplineSet
EndChar

StartChar: k
Encoding: 107 107 26
Width: 510
Flags: HMW
LayerCount: 2
Fore
SplineSet
185 252 m 2
 81 252 l 9
 81 272 l 17
 185 272 l 2
 291 272 405 353 405 490 c 2
 405 500 l 9
 430 500 l 17
 430 489 l 2
 430 343 309 252 185 252 c 2
185 267 m 2
 309 267 430 176 430 30 c 2
 430 -1 l 9
 405 -1 l 17
 405 29 l 2
 405 166 291 247 185 247 c 2
 81 247 l 9
 81 267 l 17
 185 267 l 2
70 828 m 1
 95 828 l 1
 95 0 l 1
 70 0 l 1
 70 828 l 1
EndSplineSet
EndChar

StartChar: z
Encoding: 122 122 27
Width: 407
Flags: HMW
LayerCount: 2
Back
SplineSet
-32 -122 m 0
 -32 -227 54 -313 159 -313 c 0
 264 -313 350 -227 350 -122 c 0
 350 -17 264 69 159 69 c 0
 54 69 -32 -17 -32 -122 c 0
-57 -122 m 0
 -57 -1 40 89 159 89 c 0
 278 89 375 -1 375 -122 c 0
 375 -241 278 -338 159 -338 c 0
 40 -338 -57 -241 -57 -122 c 0
376 -78 m 17
 376 -223 270 -338 121 -338 c 3
 64 -338 20 -323 -21 -297 c 1
 -21 -265 l 1
 14 -293 63 -313 121 -313 c 3
 255 -313 351 -207 351 -78 c 1
 376 -78 l 17
EndSplineSet
Fore
SplineSet
55 490 m 1
 76 501 105 510 142 510 c 0
 261 510 357 410 357 291 c 0
 357 170 260 80 141 80 c 2
 80 80 l 1
 80 98 l 1
 111 98 l 2
 256 98 332 186 332 291 c 0
 332 396 247 485 142 485 c 0
 100 485 79 476 55 464 c 1
 55 490 l 1
51 -318 m 1
 51 -292 l 1
 75 -304 98 -313 140 -313 c 3
 245 -313 332 -225 332 -120 c 0
 332 -15 256 73 111 73 c 2
 80 73 l 1
 80 91 l 1
 141 91 l 2
 260 91 357 1 357 -120 c 0
 357 -239 259 -338 140 -338 c 3
 103 -338 72 -329 51 -318 c 1
EndSplineSet
EndChar

StartChar: .notdef
Encoding: 1114112 -1 28
Width: 652
Flags: HMW
LayerCount: 2
Back
SplineSet
575 802 m 5
 99 6 l 5
 79 26 l 5
 557 822 l 5
 575 802 l 5
79 802 m 5
 97 822 l 5
 575 26 l 5
 555 6 l 5
 79 802 l 5
95 803 m 1
 95 25 l 1
 557 25 l 1
 557 803 l 1
 95 803 l 1
70 828 m 1
 582 828 l 1
 582 0 l 1
 70 0 l 1
 70 828 l 1
EndSplineSet
Fore
SplineSet
575 802 m 1
 99 6 l 1
 79 26 l 1
 557 822 l 1
 575 802 l 1
79 802 m 1
 97 822 l 1
 575 26 l 1
 555 6 l 1
 79 802 l 1
95 803 m 1
 95 25 l 1
 557 25 l 1
 557 803 l 1
 95 803 l 1
70 828 m 1
 582 828 l 1
 582 0 l 1
 70 0 l 1
 70 828 l 1
EndSplineSet
EndChar

StartChar: period
Encoding: 46 46 29
Width: 264
Flags: MW
LayerCount: 2
Fore
SplineSet
102 20 m 0
 102 37 115 50 132 50 c 0
 149 50 162 37 162 20 c 0
 162 3 149 -10 132 -10 c 0
 115 -10 102 3 102 20 c 0
EndSplineSet
EndChar

StartChar: comma
Encoding: 44 44 30
Width: 259
Flags: MW
LayerCount: 2
Back
SplineSet
62 0 m 0
 62 28 84 50 112 50 c 0
 140 50 162 28 162 0 c 0
 162 -28 140 -50 112 -50 c 0
 84 -50 62 -28 62 0 c 0
72 5 m 0
 72 30 92 50 117 50 c 0
 142 50 162 30 162 5 c 0
 162 -20 142 -40 117 -40 c 0
 92 -40 72 -20 72 5 c 0
72 -10 m 0
 72 23 99 50 132 50 c 0
 165 50 192 23 192 -10 c 0
 192 -43 165 -70 132 -70 c 0
 99 -70 72 -43 72 -10 c 0
102 20 m 0
 102 37 115 50 132 50 c 0
 149 50 162 37 162 20 c 0
 162 3 149 -10 132 -10 c 0
 115 -10 102 3 102 20 c 0
EndSplineSet
Fore
SplineSet
102 20 m 0
 102 37 115 50 132 50 c 0
 152 50 164 34 164 4 c 0
 164 -28 147 -55 132 -55 c 1
 132 -10 l 1
 115 -10 102 3 102 20 c 0
EndSplineSet
EndChar

StartChar: question
Encoding: 63 63 34
Width: 602
Flags: HWO
LayerCount: 2
Fore
SplineSet
269 20 m 0
 269 37 282 50 299 50 c 0
 316 50 329 37 329 20 c 0
 329 3 316 -10 299 -10 c 0
 282 -10 269 3 269 20 c 0
284 343 m 1
 309 343 l 1
 309 149 l 1
 284 149 l 1
 284 343 l 1
296 343 m 0
 430 343 526 449 526 578 c 0
 526 707 430 813 296 813 c 0
 162 813 66 707 66 578 c 0
 41 578 l 0
 41 723 147 838 296 838 c 0
 445 838 551 723 551 578 c 0
 551 433 445 318 296 318 c 0
 296 343 l 0
EndSplineSet
EndChar

StartChar: two
Encoding: 50 50 35
Width: 1000
Flags: H
LayerCount: 2
Back
SplineSet
50 25 m 5
 561 25 l 5
 561 0 l 5
 50 0 l 5
 50 25 l 5
306 279 m 4
 172 279 76 154 76 25 c 4
 51 25 l 4
 51 170 157 304 306 304 c 4
 306 279 l 4
306 304 m 4
 440 304 536 430 536 559 c 4
 536 688 440 813 306 813 c 4
 172 813 76 707 76 578 c 4
 51 578 l 4
 51 723 157 838 306 838 c 4
 455 838 561 704 561 559 c 4
 561 414 455 279 306 279 c 4
 306 304 l 4
EndSplineSet
EndChar
